v<svg width="16" height="16" viewBox="0 0 512 512" xmlns="http://www.w3.org/2000/svg" xmlns:xlink="http://www.w3.org/1999/xlink" fill="#000000" class="icon-House"><path class="color1" d="M501.9,225.7c-2,2.4-5,3.7-7.9,3.7c-2.3,0-4.7-0.8-6.6-2.4L256,33L24.6,227c-4.4,3.7-10.9,3.1-14.6-1.3 c-3.7-4.4-3.1-10.9,1.3-14.6L256,6l244.6,205.1C505,214.8,505.6,221.3,501.9,225.7z M371.5,73.4c5.7,0,10.3-4.6,10.3-10.3V43h58.3 v82.8c0,5.7,4.6,10.3,10.3,10.3s10.3-4.6,10.3-10.3V22.3h-99.7v40.7C361.1,68.8,365.7,73.4,371.5,73.4z M450.5,235 c-5.7,0-10.3,4.6-10.3,10.3v174h-195V235H131.2v184.3H73.9v-174c0-5.7-4.6-10.3-10.3-10.3s-10.3,4.6-10.3,10.3V440h98.7V255.7h72.5 V440h236.4V245.4C460.8,239.7,456.2,235,450.5,235z M382.8,235v98.7h-98.7V235H382.8z M362.1,255.7h-57.3V313h57.3V255.7z M235.7,473.5c5.7,0,10.3-4.6,10.3-10.3s-4.6-10.3-10.3-10.3h-96.2c-5.7,0-10.3,4.6-10.3,10.3s4.6,10.3,10.3,10.3H235.7z M254,482.1 H121.3c-5.7,0-10.3,4.6-10.3,10.3s4.6,10.3,10.3,10.3H254c5.7,0,10.3-4.6,10.3-10.3S259.7,482.1,254,482.1z"></path></svg>